<?xml version="1.0" standalone="no"?>
<!DOCTYPE svg PUBLIC "-//W3C//DTD SVG 20010904//EN"
 "http://www.w3.org/TR/2001/REC-SVG-20010904/DTD/svg10.dtd">
<svg version="1.0" xmlns="http://www.w3.org/2000/svg"
 width="1280.000000pt" height="720.000000pt" viewBox="0 0 1280.000000 720.000000"
 preserveAspectRatio="xMidYMid meet">
<metadata>
Created by potrace 1.16, written by Peter Selinger 2001-2019
</metadata>
<g transform="translate(0.000000,720.000000) scale(0.100000,-0.100000)"
fill="#000000" stroke="none">
<path d="M2421 6244 c-96 -26 -190 -83 -271 -164 -82 -82 -128 -153 -169 -258
-23 -60 -25 -81 -25 -197 1 -288 96 -493 355 -760 69 -71 133 -141 142 -155
23 -33 21 -73 -4 -96 -20 -18 -55 -18 -1040 -15 l-1019 3 0 -421 0 -421 1238
0 c1377 0 1310 -3 1457 69 146 71 252 176 320 316 50 103 64 172 76 358 11
191 5 242 -41 334 -25 49 -278 361 -436 537 -58 64 -60 100 -6 124 33 15 100
17 635 20 l597 4 0 -881 0 -881 410 0 410 0 0 880 0 880 550 0 550 0 0 370 0
370 -1837 -1 c-1570 0 -1846 -2 -1892 -15z"/>
<path d="M6635 6248 c-3 -7 -166 -560 -364 -1228 -197 -669 -362 -1226 -365
-1238 l-7 -22 412 2 412 3 65 173 65 172 437 0 436 0 64 -175 63 -175 403 0
c318 0 402 3 399 13 -2 6 -158 561 -345 1232 -188 671 -343 1228 -346 1238 -5
16 -45 17 -665 17 -519 0 -661 -3 -664 -12z m824 -1082 c72 -246 131 -450 131
-452 0 -2 -124 -4 -275 -4 -151 0 -275 2 -275 4 0 4 267 871 275 895 3 8 7 12
10 10 2 -2 62 -206 134 -453z"/>
<path d="M8970 5010 l0 -1250 450 0 450 0 2 417 3 417 109 -125 c325 -371 571
-614 672 -664 32 -16 81 -29 135 -35 47 -6 412 -10 827 -10 l742 0 0 420 0
420 -605 0 c-400 0 -622 4 -657 11 -85 18 -161 70 -143 99 2 4 23 10 45 13
175 23 352 249 426 542 34 137 39 311 10 414 -72 262 -306 500 -559 567 -42
11 -225 14 -979 14 l-928 0 0 -1250z m1567 599 c79 -38 133 -149 119 -246 -10
-72 -47 -127 -108 -157 l-52 -26 -313 0 -313 0 0 225 0 225 312 0 c296 0 314
-1 355 -21z"/>
<path d="M747 2243 c194 -659 360 -1222 368 -1251 l16 -52 374 0 374 0 35 113
c19 61 98 319 175 572 78 253 144 468 149 479 5 12 58 -167 167 -570 l160
-589 367 -3 367 -2 20 67 c129 436 711 2426 711 2429 0 2 -180 4 -399 4 l-399
0 -15 -47 c-120 -409 -232 -772 -236 -767 -3 3 -60 186 -126 407 l-121 402
-485 3 -486 2 -102 -397 c-57 -219 -107 -404 -110 -411 -4 -7 -59 172 -122
398 l-114 410 -461 0 -461 0 354 -1197z"/>
<path d="M10523 3425 c-96 -26 -174 -73 -253 -154 -133 -134 -191 -265 -198
-442 -9 -235 64 -454 217 -653 22 -28 86 -96 141 -151 156 -153 189 -216 133
-252 -25 -17 -69 -18 -683 -15 -372 2 -672 8 -695 13 -58 14 -114 39 -164 73
l-44 29 53 14 c83 21 147 61 219 139 105 112 181 275 216 458 18 95 21 261 6
328 -65 284 -312 539 -585 603 -51 12 -213 15 -973 15 l-913 0 0 -1250 0
-1250 450 0 450 0 2 414 3 413 135 -155 c169 -195 539 -568 604 -610 28 -18
68 -38 90 -45 32 -9 289 -11 1146 -9 1231 4 1185 1 1338 73 205 95 347 246
409 433 24 73 27 96 27 226 0 224 -16 255 -309 601 -99 117 -201 238 -228 268
-60 69 -62 106 -7 133 32 17 84 18 643 18 l607 0 0 375 0 375 -892 -1 c-735 0
-902 -3 -945 -14z m-1992 -636 c53 -16 103 -61 130 -116 43 -89 25 -218 -38
-275 -49 -45 -76 -48 -408 -48 l-315 0 0 225 0 225 296 0 c193 0 310 -4 335
-11z"/>
<path d="M4605 3418 c-2 -7 -166 -564 -365 -1238 -198 -674 -363 -1231 -365
-1238 -4 -10 79 -12 407 -10 l412 3 63 164 c34 91 66 168 71 173 4 4 201 7
437 6 l430 -3 64 -173 64 -172 403 0 403 0 -9 28 c-12 36 -690 2460 -690 2467
0 3 -297 5 -660 5 -520 0 -662 -3 -665 -12z m825 -1088 c66 -228 123 -423 126
-432 5 -17 -12 -18 -271 -18 -263 0 -276 1 -271 18 4 10 51 164 106 343 180
582 172 557 181 529 5 -14 63 -212 129 -440z"/>
</g>
</svg>
